<svg width="263" height="185" viewBox="0 0 263 185" fill="none" xmlns="http://www.w3.org/2000/svg">
<ellipse cx="83.9892" cy="4.20455" rx="4.16305" ry="4.20455" fill="#6674CC" fill-opacity="0.15"/>
<ellipse cx="83.9892" cy="105.114" rx="4.16305" ry="4.20455" fill="#6674CC" fill-opacity="0.15"/>
<ellipse cx="83.9892" cy="54.6586" rx="4.16305" ry="4.20455" fill="#6674CC" fill-opacity="0.15"/>
<ellipse cx="83.9892" cy="155.568" rx="4.16305" ry="4.20455" fill="#6674CC" fill-opacity="0.15"/>
<ellipse cx="83.9892" cy="29.4321" rx="4.16305" ry="4.20455" fill="#6674CC" fill-opacity="0.15"/>
<ellipse cx="83.9892" cy="130.341" rx="4.16305" ry="4.20455" fill="#6674CC" fill-opacity="0.15"/>
<ellipse cx="83.9892" cy="79.8862" rx="4.16305" ry="4.20455" fill="#6674CC" fill-opacity="0.15"/>
<ellipse cx="83.9892" cy="180.795" rx="4.16305" ry="4.20455" fill="#6674CC" fill-opacity="0.15"/>
<ellipse cx="183.902" cy="4.20455" rx="4.16305" ry="4.20455" fill="#6674CC" fill-opacity="0.15"/>
<ellipse cx="183.902" cy="105.114" rx="4.16305" ry="4.20455" fill="#6674CC" fill-opacity="0.15"/>
<ellipse cx="183.902" cy="54.6586" rx="4.16305" ry="4.20455" fill="#6674CC" fill-opacity="0.15"/>
<ellipse cx="183.902" cy="155.568" rx="4.16305" ry="4.20455" fill="#6674CC" fill-opacity="0.15"/>
<ellipse cx="183.902" cy="29.4321" rx="4.16305" ry="4.20455" fill="#6674CC" fill-opacity="0.15"/>
<ellipse cx="183.902" cy="130.341" rx="4.16305" ry="4.20455" fill="#6674CC" fill-opacity="0.15"/>
<ellipse cx="183.902" cy="79.8862" rx="4.16305" ry="4.20455" fill="#6674CC" fill-opacity="0.15"/>
<ellipse cx="183.902" cy="180.795" rx="4.16305" ry="4.20455" fill="#6674CC" fill-opacity="0.15"/>
<ellipse cx="133.946" cy="4.20455" rx="4.16305" ry="4.20455" fill="#6674CC" fill-opacity="0.15"/>
<ellipse cx="133.946" cy="105.114" rx="4.16305" ry="4.20455" fill="#6674CC" fill-opacity="0.15"/>
<ellipse cx="133.946" cy="54.6586" rx="4.16305" ry="4.20455" fill="#6674CC" fill-opacity="0.15"/>
<ellipse cx="133.946" cy="155.568" rx="4.16305" ry="4.20455" fill="#6674CC" fill-opacity="0.15"/>
<ellipse cx="133.946" cy="29.4321" rx="4.16305" ry="4.20455" fill="#6674CC" fill-opacity="0.15"/>
<ellipse cx="133.946" cy="130.341" rx="4.16305" ry="4.20455" fill="#6674CC" fill-opacity="0.15"/>
<ellipse cx="133.946" cy="79.8862" rx="4.16305" ry="4.20455" fill="#6674CC" fill-opacity="0.15"/>
<ellipse cx="133.946" cy="180.795" rx="4.16305" ry="4.20455" fill="#6674CC" fill-opacity="0.15"/>
<ellipse cx="34.0322" cy="4.20455" rx="4.16305" ry="4.20455" fill="#6674CC" fill-opacity="0.15"/>
<ellipse cx="34.0322" cy="105.114" rx="4.16305" ry="4.20455" fill="#6674CC" fill-opacity="0.15"/>
<ellipse cx="34.0322" cy="54.6586" rx="4.16305" ry="4.20455" fill="#6674CC" fill-opacity="0.15"/>
<ellipse cx="34.0322" cy="155.568" rx="4.16305" ry="4.20455" fill="#6674CC" fill-opacity="0.15"/>
<ellipse cx="233.858" cy="4.20455" rx="4.16305" ry="4.20455" fill="#6674CC" fill-opacity="0.15"/>
<ellipse cx="233.858" cy="105.114" rx="4.16305" ry="4.20455" fill="#6674CC" fill-opacity="0.15"/>
<ellipse cx="233.858" cy="54.6586" rx="4.16305" ry="4.20455" fill="#6674CC" fill-opacity="0.15"/>
<ellipse cx="233.858" cy="155.568" rx="4.16305" ry="4.20455" fill="#6674CC" fill-opacity="0.15"/>
<ellipse cx="34.0322" cy="29.4321" rx="4.16305" ry="4.20455" fill="#6674CC" fill-opacity="0.15"/>
<ellipse cx="34.0322" cy="130.341" rx="4.16305" ry="4.20455" fill="#6674CC" fill-opacity="0.15"/>
<ellipse cx="34.0322" cy="79.8862" rx="4.16305" ry="4.20455" fill="#6674CC" fill-opacity="0.15"/>
<ellipse cx="34.0322" cy="180.795" rx="4.16305" ry="4.20455" fill="#6674CC" fill-opacity="0.15"/>
<ellipse cx="233.858" cy="29.4321" rx="4.16305" ry="4.20455" fill="#6674CC" fill-opacity="0.15"/>
<ellipse cx="233.858" cy="130.341" rx="4.16305" ry="4.20455" fill="#6674CC" fill-opacity="0.15"/>
<ellipse cx="233.858" cy="79.8862" rx="4.16305" ry="4.20455" fill="#6674CC" fill-opacity="0.15"/>
<ellipse cx="233.858" cy="180.795" rx="4.16305" ry="4.20455" fill="#6674CC" fill-opacity="0.15"/>
<ellipse cx="108.968" cy="4.20455" rx="4.16305" ry="4.20455" fill="#6674CC" fill-opacity="0.15"/>
<ellipse cx="108.968" cy="105.114" rx="4.16305" ry="4.20455" fill="#6674CC" fill-opacity="0.15"/>
<ellipse cx="108.968" cy="54.6586" rx="4.16305" ry="4.20455" fill="#6674CC" fill-opacity="0.15"/>
<ellipse cx="108.968" cy="155.568" rx="4.16305" ry="4.20455" fill="#6674CC" fill-opacity="0.15"/>
<ellipse cx="108.968" cy="29.4321" rx="4.16305" ry="4.20455" fill="#6674CC" fill-opacity="0.15"/>
<ellipse cx="108.968" cy="130.341" rx="4.16305" ry="4.20455" fill="#6674CC" fill-opacity="0.15"/>
<ellipse cx="108.968" cy="79.8862" rx="4.16305" ry="4.20455" fill="#6674CC" fill-opacity="0.15"/>
<ellipse cx="108.968" cy="180.795" rx="4.16305" ry="4.20455" fill="#6674CC" fill-opacity="0.15"/>
<ellipse cx="9.05367" cy="4.20455" rx="4.16305" ry="4.20455" fill="#6674CC" fill-opacity="0.15"/>
<ellipse cx="9.05367" cy="105.114" rx="4.16305" ry="4.20455" fill="#6674CC" fill-opacity="0.15"/>
<ellipse cx="9.05367" cy="54.6586" rx="4.16305" ry="4.20455" fill="#6674CC" fill-opacity="0.15"/>
<ellipse cx="9.05367" cy="155.568" rx="4.16305" ry="4.20455" fill="#6674CC" fill-opacity="0.15"/>
<ellipse cx="208.881" cy="4.20455" rx="4.16305" ry="4.20455" fill="#6674CC" fill-opacity="0.15"/>
<ellipse cx="208.881" cy="105.114" rx="4.16305" ry="4.20455" fill="#6674CC" fill-opacity="0.15"/>
<ellipse cx="208.881" cy="54.6586" rx="4.16305" ry="4.20455" fill="#6674CC" fill-opacity="0.15"/>
<ellipse cx="208.881" cy="155.568" rx="4.16305" ry="4.20455" fill="#6674CC" fill-opacity="0.15"/>
<ellipse cx="9.05367" cy="29.4321" rx="4.16305" ry="4.20455" fill="#6674CC" fill-opacity="0.15"/>
<ellipse cx="9.05367" cy="130.341" rx="4.16305" ry="4.20455" fill="#6674CC" fill-opacity="0.15"/>
<ellipse cx="9.05367" cy="79.8862" rx="4.16305" ry="4.20455" fill="#6674CC" fill-opacity="0.15"/>
<ellipse cx="9.05367" cy="180.795" rx="4.16305" ry="4.20455" fill="#6674CC" fill-opacity="0.15"/>
<ellipse cx="208.881" cy="29.4321" rx="4.16305" ry="4.20455" fill="#6674CC" fill-opacity="0.15"/>
<ellipse cx="208.881" cy="130.341" rx="4.16305" ry="4.20455" fill="#6674CC" fill-opacity="0.15"/>
<ellipse cx="208.881" cy="79.8862" rx="4.16305" ry="4.20455" fill="#6674CC" fill-opacity="0.15"/>
<ellipse cx="208.881" cy="180.795" rx="4.16305" ry="4.20455" fill="#6674CC" fill-opacity="0.15"/>
<ellipse cx="158.924" cy="4.20455" rx="4.16305" ry="4.20455" fill="#6674CC" fill-opacity="0.15"/>
<ellipse cx="158.924" cy="105.114" rx="4.16305" ry="4.20455" fill="#6674CC" fill-opacity="0.15"/>
<ellipse cx="158.924" cy="54.6586" rx="4.16305" ry="4.20455" fill="#6674CC" fill-opacity="0.15"/>
<ellipse cx="158.924" cy="155.568" rx="4.16305" ry="4.20455" fill="#6674CC" fill-opacity="0.15"/>
<ellipse cx="158.924" cy="29.4321" rx="4.16305" ry="4.20455" fill="#6674CC" fill-opacity="0.15"/>
<ellipse cx="158.924" cy="130.341" rx="4.16305" ry="4.20455" fill="#6674CC" fill-opacity="0.15"/>
<ellipse cx="158.924" cy="79.8862" rx="4.16305" ry="4.20455" fill="#6674CC" fill-opacity="0.15"/>
<ellipse cx="158.924" cy="180.795" rx="4.16305" ry="4.20455" fill="#6674CC" fill-opacity="0.15"/>
<ellipse cx="59.0117" cy="4.20455" rx="4.16305" ry="4.20455" fill="#6674CC" fill-opacity="0.15"/>
<ellipse cx="59.0117" cy="105.114" rx="4.16305" ry="4.20455" fill="#6674CC" fill-opacity="0.15"/>
<ellipse cx="59.0117" cy="54.6586" rx="4.16305" ry="4.20455" fill="#6674CC" fill-opacity="0.15"/>
<ellipse cx="59.0117" cy="155.568" rx="4.16305" ry="4.20455" fill="#6674CC" fill-opacity="0.15"/>
<ellipse cx="258.837" cy="4.20455" rx="4.16305" ry="4.20455" fill="#6674CC" fill-opacity="0.15"/>
<ellipse cx="258.837" cy="105.114" rx="4.16305" ry="4.20455" fill="#6674CC" fill-opacity="0.15"/>
<ellipse cx="258.837" cy="54.6586" rx="4.16305" ry="4.20455" fill="#6674CC" fill-opacity="0.15"/>
<ellipse cx="258.837" cy="155.568" rx="4.16305" ry="4.20455" fill="#6674CC" fill-opacity="0.15"/>
<ellipse cx="59.0117" cy="29.4321" rx="4.16305" ry="4.20455" fill="#6674CC" fill-opacity="0.15"/>
<ellipse cx="59.0117" cy="130.341" rx="4.16305" ry="4.20455" fill="#6674CC" fill-opacity="0.15"/>
<ellipse cx="59.0117" cy="79.8862" rx="4.16305" ry="4.20455" fill="#6674CC" fill-opacity="0.15"/>
<ellipse cx="59.0117" cy="180.795" rx="4.16305" ry="4.20455" fill="#6674CC" fill-opacity="0.15"/>
<ellipse cx="258.837" cy="29.4321" rx="4.16305" ry="4.20455" fill="#6674CC" fill-opacity="0.15"/>
<ellipse cx="258.837" cy="130.341" rx="4.16305" ry="4.20455" fill="#6674CC" fill-opacity="0.15"/>
<ellipse cx="258.837" cy="79.8862" rx="4.16305" ry="4.20455" fill="#6674CC" fill-opacity="0.15"/>
<ellipse cx="258.837" cy="180.795" rx="4.16305" ry="4.20455" fill="#6674CC" fill-opacity="0.15"/>
</svg>
