<svg width="1440" height="2025" viewBox="0 0 1440 2025" fill="none" xmlns="http://www.w3.org/2000/svg">
<path d="M-714.962 1220.93C-681.929 1102.43 -636.816 977.385 -545.167 890.118C-425.093 775.777 -255.086 757.98 -120.936 796.737C13.2226 835.498 123.156 920.662 242.385 988.042C361.611 1055.42 500.945 1106.22 649.335 1069.76C855.135 1019.21 1024.2 816.297 1227.15 739.03C1396.37 674.6 1579.25 710.532 1684.9 828.969" stroke="#6674CC" stroke-opacity="0.1" stroke-width="1.33333" stroke-miterlimit="10"/>
<path d="M-616.239 1264.53C-584.991 1152.42 -542.311 1034.13 -455.616 951.58C-342.026 843.414 -181.21 826.583 -54.2997 863.241C72.6097 899.91 176.604 980.478 289.388 1044.21C402.174 1107.96 533.979 1156.01 674.355 1121.52C869.046 1073.69 1028.97 881.748 1220.96 808.651C1381.04 747.704 1554.03 781.696 1653.98 893.733" stroke="#6674CC" stroke-opacity="0.1" stroke-width="1.33333" stroke-miterlimit="10"/>
<path d="M-517.514 1308.13C-488.05 1202.42 -447.811 1090.89 -366.065 1013.05C-258.96 911.066 -107.33 895.193 12.3295 929.763C131.995 964.33 230.051 1040.3 336.398 1100.39C442.74 1160.49 567.023 1205.81 699.383 1173.29C882.949 1128.19 1033.75 947.206 1214.77 878.287C1365.71 820.818 1528.82 852.87 1623.06 958.514" stroke="#6674CC" stroke-opacity="0.1" stroke-width="1.33333" stroke-miterlimit="10"/>
<path d="M-418.787 1351.72C-391.109 1252.42 -353.303 1147.64 -276.51 1074.51C-175.89 978.706 -33.441 963.798 78.9719 996.271C191.385 1028.74 283.502 1100.12 383.405 1156.57C483.309 1213.03 600.065 1255.6 724.408 1225.05C896.863 1182.68 1038.53 1012.66 1208.58 947.916C1350.38 893.927 1503.62 924.034 1592.15 1023.28" stroke="#6674CC" stroke-opacity="0.1" stroke-width="1.33333" stroke-miterlimit="10"/>
<path d="M-334.018 1405.11C-308.128 1312.21 -272.759 1214.19 -200.914 1145.78C-106.784 1056.14 26.4795 1042.19 131.65 1072.57C236.815 1102.96 322.996 1169.72 416.46 1222.54C509.922 1275.36 619.151 1315.18 735.474 1286.61C896.808 1246.97 1029.34 1087.91 1188.43 1027.34C1321.09 976.829 1464.45 1005 1547.27 1097.85" stroke="#6674CC" stroke-opacity="0.1" stroke-width="1.33333" stroke-miterlimit="10"/>
</svg>
